<?xml version="1.0" encoding="utf-8"?>
<!-- Generator: Adobe Illustrator 21.1.0, SVG Export Plug-In . SVG Version: 6.00 Build 0)  -->
<!DOCTYPE svg PUBLIC "-//W3C//DTD SVG 1.1//EN" "http://www.w3.org/Graphics/SVG/1.1/DTD/svg11.dtd">
<svg version="1.1" id="Ebene_1" xmlns:sketch="http://www.bohemiancoding.com/sketch/ns"
	 xmlns="http://www.w3.org/2000/svg" xmlns:xlink="http://www.w3.org/1999/xlink" x="0px" y="0px" width="60px" height="60px"
	 viewBox="0 0 60 60" style="enable-background:new 0 0 60 60;" xml:space="preserve">
<style type="text/css">
	.st0{fill:#FFFFFF;}
</style>
<title></title>
<desc></desc>
<g id="Page-1">
	<g id="Group" transform="translate(0.000000, 1.000000)">
		<path id="Fill-160" class="st0" d="M52.5,40.6l1.2-3.3c0.1-0.4,0-0.8-0.2-1c-0.3-0.3-0.7-0.4-1-0.3l-2.6,0.9l-1.6-0.8
			c-0.3-0.2-0.8-0.1-1.1,0.1c-0.3,0.2-0.4,0.6-0.3,1l0.8,3.1c-3,1-5.3,4-6.3,7.3L42.7,22H44c0.6,0,1-0.4,1-1s-0.4-1-1-1h-2.8
			c-0.4-4.2-2.7-8.7-6.1-10.3l1.6-3.2c0.2-0.4,0.1-0.8-0.2-1.1c-0.3-0.3-0.7-0.4-1.1-0.3l-2.7,0.9L30,5.1c-0.4-0.1-0.8,0-1,0.3
			c-0.3,0.3-0.3,0.7-0.2,1.1L30,9.3c-2.2,0.6-4.2,2.2-5.8,4.5l-0.1,0V10c0-0.4-0.2-0.7-0.6-0.9c-0.4-0.2-0.8-0.1-1.1,0.2l-2,1.8
			h-2.6c-0.4,0-0.7,0.2-0.9,0.6s-0.1,0.8,0.1,1.1l2.2,2.7c-1.3,1.1-2.3,2.7-2.9,4.6H14c-0.6,0-1,0.4-1,1s0.4,1,1,1h0.8l0.7,12.9
			c-1.2-0.6-2.3-0.9-3.5-1.1V29c0-0.4-0.2-0.7-0.5-0.9c-0.3-0.2-0.7-0.2-1,0l-3,1.9H4.7c-0.4,0-0.7,0.2-0.9,0.5
			c-0.2,0.3-0.2,0.7,0,1l2.2,3.6c-1.7,1.1-3.1,2.8-4.2,5.1c-2,4-2.4,8.8-1,12.2C3,58,6.7,58,14.7,58c0.8,0,1.6-0.1,2.3-0.3
			c0.2,0.2,0.4,0.3,0.7,0.3h22c0.5,0,1-0.4,1-0.9l0.2-4.2c0.6,2.4,2.6,5.1,8.8,5.1c7.8,0,9-4.4,9-7C58.7,46.9,56.1,42.2,52.5,40.6
			L52.5,40.6z M32.4,7.9C32.6,8,32.8,8,33,7.9l0.8-0.3l-0.7,1.4C33,9,32.9,9,32.8,9c-0.3,0-0.6,0-0.8,0l-0.5-1.4L32.4,7.9L32.4,7.9z
			 M32.6,11c3.6,0.4,6.2,4.8,6.6,9h-6.8c-1.4-2.5-3.7-4.7-6.2-5.7C27.8,12.4,30.1,10.7,32.6,11L32.6,11z M19.8,13h0.9
			c0.2,0,0.5-0.1,0.7-0.2l0.6-0.5v1.7c-0.2,0-0.4,0.1-0.6,0.1c-0.2,0.1-0.4,0.2-0.6,0.2L19.8,13L19.8,13z M22,16c2.7-0.9,6,1.2,8,4
			H18.3C19.2,17.9,20.5,16.5,22,16L22,16z M6.5,32h1.2c0.2,0,0.4-0.1,0.5-0.1l1.8-1.1v3c-0.5,0-1,0.1-1.5,0.3
			c-0.2,0.1-0.4,0.1-0.6,0.2L6.5,32L6.5,32z M2.6,51.6c-1.1-2.8-0.7-7.1,1-10.5c1-2,2.3-3.6,3.8-4.5l0.1,0c0.2,0,0.4,0,0.5-0.1
			c0.1-0.1,0.2-0.2,0.3-0.3C8.6,36.1,8.8,36,9,36c0.4-0.1,0.9-0.2,1.4-0.2c0.2,0.1,0.4,0.2,0.6,0.2c0.2,0,0.4-0.1,0.6-0.2
			c1.3,0.1,2.7,0.6,4,1.4l1,18.5C16,55.9,15.4,56,14.7,56C6.4,56,4.3,55.8,2.6,51.6L2.6,51.6z M38.8,56H18.7l-1.9-33.9l0.2,0
			c0.1,0,0.2,0,0.4-0.1h23.4L38.8,56L38.8,56z M49.2,38.9L49.2,38.9c0.3,0.1,0.5,0.2,0.8,0.1l1-0.3l-0.5,1.5C50.3,40,50,40,49.7,40
			l-0.2,0L49.2,38.9L49.2,38.9z M49.7,56c-7,0-7-3.8-7-5c0-4.1,3.2-9,7-9c3.8,0,7,4.9,7,9C56.7,52.2,56.7,56,49.7,56L49.7,56z"/>
		<path id="Fill-161" class="st0" d="M35.8,28c-0.6,0-1,0.4-1.1,0.9l-1,18c0,0.6,0.4,1,0.9,1.1l0.1,0c0.5,0,1-0.4,1-0.9l1-18
			C36.7,28.5,36.3,28,35.8,28"/>
		<path id="Fill-162" class="st0" d="M21.7,28c-0.6,0-1,0.5-0.9,1.1l1,18c0,0.5,0.5,0.9,1,0.9l0.1,0c0.6,0,1-0.5,0.9-1.1l-1-18
			C22.7,28.4,22.2,28,21.7,28"/>
		<path id="Fill-163" class="st0" d="M29,28c-0.6,0-1,0.4-1,1v18c0,0.6,0.4,1,1,1s1-0.4,1-1V29C30,28.4,29.6,28,29,28"/>
		<path id="Fill-164" class="st0" d="M7.7,21c0.6,0,1-0.4,1-1c0-0.6-0.4-1-1-1c-0.5,0-3-0.2-3-3c0-1.4,0.5-1.6,1.4-2.1
			c1.1-0.5,2.6-1.3,2.6-3.9c0-2-0.9-3.6-2.6-4.4C5.6,5.3,5,5.5,4.8,6c-0.2,0.5,0,1.1,0.5,1.3c1,0.5,1.5,1.3,1.5,2.6
			c0,1.4-0.5,1.6-1.4,2.1c-1.1,0.5-2.6,1.3-2.6,3.9C2.7,20,6,21,7.7,21"/>
		<path id="Fill-165" class="st0" d="M53.7,27.5c-0.6,0-1,0.4-1,1c0,0.6,0.4,1,1,1c1.7,0,5-1,5-5c0-2.6-1.5-3.4-2.6-3.9
			c-0.9-0.5-1.4-0.7-1.4-2.1c0-1.3,0.5-2.1,1.5-2.6c0.5-0.2,0.7-0.8,0.5-1.3c-0.2-0.5-0.8-0.7-1.3-0.5c-1.7,0.8-2.6,2.4-2.6,4.4
			c0,2.6,1.5,3.4,2.6,3.9c0.9,0.5,1.4,0.7,1.4,2.1C56.7,27.3,54.2,27.5,53.7,27.5"/>
		<path id="Fill-166" class="st0" d="M46.7,13.5c-0.6,0-1,0.4-1,1c0,0.6,0.4,1,1,1c1.7,0,5-1,5-5c0-2.6-1.5-3.4-2.6-3.9
			c-0.9-0.5-1.4-0.7-1.4-2.1c0-1.3,0.5-2.1,1.5-2.6c0.5-0.2,0.7-0.8,0.5-1.3c-0.2-0.5-0.8-0.7-1.3-0.5c-1.7,0.8-2.6,2.4-2.6,4.4
			c0,2.6,1.5,3.4,2.6,3.9c0.9,0.5,1.4,0.7,1.4,2.1C49.7,13.3,47.2,13.5,46.7,13.5"/>
	</g>
</g>
</svg>
