<svg width="36" height="34" viewBox="0 0 36 34" version="1.1" xmlns="http://www.w3.org/2000/svg" xmlns:xlink="http://www.w3.org/1999/xlink">
<title>inuksuk-inverted</title>
<desc>Created using Figma</desc>
<g id="Canvas" transform="translate(-3094 -937)">
<g id="inuksuk-inverted">
<g id="XMLID 1">
<g id="Vector">
<use xlink:href="#path0_fill" transform="translate(3095.06 937.723)" fill="#FFFFFF"/>
</g>
<g id="Vector">
<use xlink:href="#path1_fill" transform="translate(3094 937)"/>
</g>
</g>
</g>
</g>
<defs>
<path id="path0_fill" d="M 8.06557 32.5532C 7.31803 32.5532 6.57049 32.513 5.8623 32.4326C 5.62623 32.4326 5.39016 32.3924 5.1541 32.3924C 4.76066 32.3522 4.48525 32.0709 4.32787 31.9102C 3.89508 31.4681 4.24918 30.9858 4.36721 30.8251C 4.40656 30.7849 4.40656 30.7447 4.40656 30.7447C 4.40656 30.7045 4.4459 30.6643 4.48525 30.6643C 4.56393 30.2624 4.68197 29.9007 4.76066 29.4988C 4.87869 29.0567 4.95738 28.6147 5.07541 28.1726C 5.1541 27.7707 5.27213 27.3688 5.35082 26.9669C 5.62623 25.8416 5.8623 24.6761 6.17705 23.5508C 6.29508 23.1489 6.45246 22.7872 6.64918 22.4657L 5.66557 22.3853L 5.82295 21.5816C 5.8623 21.3404 5.94098 21.0993 5.98033 20.8582C 6.09836 20.2955 6.21639 19.7329 6.37377 19.2104C 6.4918 18.7683 6.4918 18.5674 6.41312 18.4066C 6.05902 17.8038 6.33443 17.2813 6.45246 17.0402C 6.4918 17 6.4918 16.9196 6.53115 16.9196C 6.76721 15.9953 7.39672 15.5532 8.34098 15.5532C 8.38033 15.5532 8.45902 15.5532 8.49836 15.5532C 8.85246 15.5532 9.20656 15.5532 9.52131 15.5532C 9.67869 15.5532 9.83607 15.5532 9.99344 15.5532C 9.83607 14.8298 9.99344 14.1064 10.1115 13.4634C 10.1508 13.3026 10.1902 13.1418 10.1902 12.9811C 10.2295 12.6596 10.3082 12.3381 10.3869 12.0165C 10.5049 11.5745 10.5836 11.1726 10.623 10.7707C 10.6623 10.4492 10.741 10.208 10.8197 9.9669C 10.1508 10.0071 9.48197 10.0071 8.81312 10.0473C 7.43607 10.1277 5.98033 10.1678 4.56393 10.208L 4.52459 10.208C 4.17049 10.208 3.85574 10.1277 3.58033 10.0473C 3.42295 10.0071 3.30492 9.9669 3.14754 9.92671C 2.87213 9.88653 2.63607 9.84634 2.36066 9.80615C 2.00656 9.76596 1.61311 9.68558 1.25902 9.6052C 0.983607 9.56501 0.786885 9.40426 0.668852 9.28369C 0.629508 9.2435 0.629508 9.2435 0.590164 9.20331L 7.50432e-08 8.80142L 0.393443 8.19858C 0.393443 8.15839 0.432787 8.15839 0.432787 8.1182C 0.511475 7.99764 0.590164 7.79669 0.786885 7.67612C 1.33771 7.23404 2.00656 6.99291 2.71475 6.99291C 3.02951 6.99291 3.38361 7.0331 3.77705 7.15366C 4.83934 7.43499 5.98033 7.59575 7.2 7.59575C 7.59344 7.59575 8.02623 7.59575 8.45902 7.55556C 9.75738 7.47518 11.0557 7.3948 12.3148 7.31442C 12.3541 7.31442 12.3934 7.31442 12.4328 7.31442C 12.0787 6.87234 11.9213 6.34988 12 5.74705C 12.0787 5.14421 12.1574 4.58156 12.2754 4.01891C 12.3148 3.81797 12.3541 3.61702 12.3934 3.41608C 12.4328 3.17494 12.5508 2.974 12.7475 2.85343C 13.0623 2.61229 13.2984 2.25059 13.5344 1.88889C 13.8098 1.40662 14.1639 0.884161 14.6754 0.48227C 14.7148 0.44208 14.7148 0.401891 14.7541 0.361702L 14.8328 7.66547e-08L 15.5803 7.66547e-08C 15.5803 7.66547e-08 15.8557 0.0401891 15.9344 0.0803783C 16.1311 0.120567 16.3279 0.160757 16.5246 0.200946C 17.3902 0.321513 18.0984 0.442081 18.7279 0.522459L 18.8066 0.522459C 19.082 0.562648 19.318 0.602837 19.5541 0.602837C 19.5934 0.602837 19.6328 0.602837 19.7115 0.602837C 19.7902 0.602837 19.8689 0.602837 19.9475 0.602837C 20.7738 0.602837 21.2852 1.00473 21.4426 1.80851C 21.6 2.45154 21.6393 3.09456 21.6787 3.73759L 21.718 4.09929C 21.7574 4.58156 21.7967 5.02364 21.7967 5.46572L 21.8361 5.98818C 21.8361 6.14894 21.8754 6.30969 21.8754 6.47045C 21.9148 6.87234 21.9541 7.27423 21.9148 7.71631C 21.9148 7.91726 21.8754 8.07801 21.8361 8.23877C 22.0328 8.23877 22.2689 8.23877 22.4656 8.27896C 23.5279 8.31915 24.5902 8.35934 25.6918 8.72104C 26.4787 9.00236 27.3443 9.28369 28.2098 9.44444C 29.0754 9.6052 29.941 9.76596 30.8066 9.88653C 31.4754 10.0071 32.1443 10.0875 32.8131 10.208C 33.1279 10.2482 33.4033 10.409 33.6393 10.5296C 33.718 10.5697 33.7967 10.6099 33.8754 10.6501L 34.2689 10.8511L 34.2689 12.1371L 33.718 12.2175C 33.6787 12.2175 33.6 12.2175 33.5607 12.2577C 33.4426 12.2979 33.2459 12.3381 33.0492 12.3381C 32.9705 12.3381 32.9311 12.3381 32.8525 12.3381C 31.2 12.0969 29.5082 11.8156 27.8557 11.5745L 27.2656 11.4941C 27.0689 11.4539 26.8721 11.4137 26.6361 11.2931C 25.6918 10.7707 24.6689 10.6903 23.5279 10.5697C 23.2918 10.5296 23.0557 10.5296 22.8197 10.4894C 22.6623 11.3735 22.4262 12.1773 22.1508 12.9811C 21.9541 13.5437 21.7967 14.0662 21.6787 14.5887C 21.5607 15.1111 21.4033 15.6336 21.2852 16.1962C 21.3639 16.1962 21.4033 16.1962 21.482 16.1962C 21.6 16.1962 21.718 16.1962 21.8754 16.1962C 22.2689 16.1962 22.623 16.156 22.9377 15.9149C 23.3705 15.5934 23.882 15.4728 24.4721 15.4728C 24.8656 15.4728 25.2984 15.5532 25.7311 15.6738C 26.4393 15.8747 26.8328 16.4374 26.9115 17.2411C 26.9902 18.0851 26.9902 18.9693 26.9902 19.8936C 26.9508 21.3404 26.2426 21.7423 25.4164 21.8629C 25.4557 21.9031 25.4951 21.9433 25.5344 22.0236C 25.6918 22.2648 25.8492 22.5461 25.9672 22.7872C 26.0066 22.8676 26.0459 22.9882 26.1246 23.0686C 26.1246 23.1087 26.1639 23.1489 26.1639 23.1489C 26.282 23.2695 26.4 23.4303 26.4787 23.5508C 26.7148 23.8322 26.9508 24.1537 27.1869 24.435C 27.3049 24.5957 27.541 24.8771 27.5803 25.279C 27.9738 25.3995 28.2098 25.8014 28.2885 26.0827C 28.682 27.3688 28.5246 28.6548 28.3672 29.8605L 28.3672 29.9007C 28.2492 30.9054 27.4623 31.7092 26.4 31.7896C 25.8492 31.8298 25.2984 31.87 24.7082 31.87C 24.4328 31.87 24.1967 31.87 23.9213 31.87C 23.3705 31.87 22.7803 31.7896 22.2295 31.7494C 21.8754 31.7092 21.5213 31.669 21.1672 31.669C 20.6164 31.6288 20.1443 31.3877 19.7902 30.9858C 19.3967 30.5035 19.2 29.8203 19.2787 29.0165L 19.2787 28.9764C 18.8852 28.253 19.0033 27.5295 19.1607 27.0473L 19.2 26.8865C 19.3574 26.4043 19.4754 25.922 19.5934 25.4799C 19.5934 25.4397 19.5934 25.4397 19.5934 25.3995C 19.5934 25.3191 19.5541 25.2388 19.5541 25.1584C 19.5148 24.1537 19.4754 22.8676 20.6164 21.9433C 20.6951 21.9031 20.7344 21.8227 20.8131 21.7021C 20.459 21.7423 20.0656 21.7825 19.7115 21.8629L 19.4361 21.9031C 19.3967 21.9031 19.318 21.9031 19.2787 21.9031C 19.2 21.9031 19.082 21.9433 19.0426 21.9433C 18.6885 22.104 18.2951 22.1844 17.8623 22.1844C 17.6656 22.1844 17.4689 22.1844 17.2721 22.1442L 17.1934 22.1442C 17.1541 22.1442 17.1541 22.1442 17.1148 22.1442C 16.8393 22.1442 16.5639 22.2246 16.2492 22.305C 16.0918 22.3452 15.9344 22.3853 15.8164 22.4255C 15.7377 22.4255 15.659 22.4657 15.5803 22.5059C 15.3836 22.5863 15.1082 22.6667 14.8328 22.6667C 13.7705 22.6667 12.6689 22.6265 11.3705 22.5863C 11.5672 23.1087 11.6459 23.6312 11.6852 24.1135C 11.7639 24.5154 11.8033 24.9173 11.9213 25.2388C 12.118 25.8416 12.2754 26.4444 12.3934 27.0473C 12.4721 27.4492 12.5902 27.8109 12.6689 28.1726C 12.6689 28.2128 12.7475 28.3333 12.8262 28.4539C 12.9049 28.5745 12.9443 28.6548 13.023 28.7754C 13.4557 29.6194 13.259 30.4232 13.1016 31.1064L 13.0623 31.1868C 12.8656 32.1111 12 32.2317 11.6066 32.3121C 11.3311 32.3522 11.0951 32.3924 10.8197 32.4326C 10.1115 32.3924 9.32459 32.513 8.53771 32.5532C 8.38033 32.5532 8.22295 32.5532 8.06557 32.5532Z"/>
<path id="path1_fill" d="M 16.5639 1.40662C 16.8787 1.487 17.1934 1.56738 17.5082 1.60757C 18.2557 1.72813 19.0033 1.8487 19.7508 1.92908C 20.0656 1.96927 20.3803 2.00946 20.6951 2.00946C 20.7738 2.00946 20.8131 2.00946 20.8918 2.00946C 20.9705 2.00946 21.0098 2.00946 21.0885 2.00946C 21.5607 2.00946 21.7967 2.17021 21.9148 2.69267C 22.0721 3.41608 22.1115 4.17967 22.1902 4.90307C 22.2295 5.50591 22.2689 6.14894 22.3082 6.79196C 22.3475 7.35461 22.3869 7.87707 22.3869 8.43972C 22.3475 9.08274 21.9934 9.44444 21.3639 9.56501C 21.7574 9.64539 22.1115 9.6052 22.4656 9.64539C 23.8426 9.76596 25.259 9.64539 26.6361 10.1277C 27.5016 10.409 28.3672 10.6903 29.2328 10.8913C 30.7672 11.1726 32.3016 11.3735 33.8361 11.6548C 34.1508 11.695 34.4262 11.9362 34.741 12.0567C 34.741 12.1371 34.741 12.1773 34.741 12.2577C 34.5443 12.2979 34.3475 12.3381 34.1902 12.3381C 34.1508 12.3381 34.1115 12.3381 34.1115 12.3381C 32.2623 12.0567 30.3738 11.7754 28.5246 11.4941C 28.4066 11.4539 28.2492 11.4539 28.1311 11.3735C 26.8721 10.6501 25.4164 10.6501 24.0393 10.4894C 23.9607 10.4894 23.9213 10.4894 23.8426 10.4894C 23.7639 10.4894 23.6852 10.4894 23.6066 10.4894C 23.4885 10.4894 23.4098 10.5296 23.3705 10.5296C 23.2131 12.1371 22.5443 13.5839 22.1508 15.1111C 21.9541 15.9149 21.7574 16.6785 21.5213 17.6028C 21.7574 17.5626 21.9541 17.5626 22.1902 17.5626C 22.4656 17.5626 22.741 17.5626 23.0164 17.5626C 23.5279 17.5626 24 17.5225 24.4328 17.1608C 24.7869 16.9196 25.1803 16.8392 25.5738 16.8392C 25.9279 16.8392 26.3213 16.9196 26.6361 17C 27.0295 17.1206 27.2656 17.4421 27.3049 17.9243C 27.3836 18.8085 27.3836 19.6525 27.3836 20.4965C 27.3836 21.5012 26.9902 21.7021 26.2033 21.8227C 25.9672 21.8629 25.7311 22.1442 25.4164 22.3452C 25.6525 22.5863 25.8492 22.8274 26.0459 23.0686C 26.2426 23.3901 26.4 23.7116 26.5574 24.0331C 26.5967 24.0733 26.5967 24.1537 26.6361 24.1537C 26.9902 24.5957 27.3836 25.0378 27.7377 25.4799C 27.8557 25.6407 27.9738 25.8014 28.0131 25.9622C 28.0131 26.3239 28.2098 26.4444 28.4852 26.5248C 28.6033 26.565 28.7213 26.7258 28.7607 26.8463C 29.1148 28.0118 28.9574 29.2175 28.8393 30.383C 28.7607 31.0662 28.2492 31.5887 27.5016 31.6288C 26.9508 31.669 26.4 31.7092 25.8492 31.7092C 25.5738 31.7092 25.3377 31.7092 25.0623 31.7092C 24.1574 31.669 23.2525 31.5485 22.3475 31.5083C 21.4033 31.5485 20.9311 30.7447 21.0492 29.6998C 21.0492 29.5792 21.0492 29.4184 21.0098 29.2979C 20.7344 28.8558 20.7738 28.3735 20.8918 27.8913C 21.0492 27.3286 21.2066 26.8061 21.3639 26.2435C 21.4033 26.0827 21.3639 25.922 21.3246 25.721C 21.2852 24.7565 21.2852 23.792 22.1508 23.0686C 22.5443 22.747 22.7803 22.1442 23.1344 21.5414C 22.8984 21.5414 22.741 21.5012 22.5836 21.5012C 22.5443 21.5012 22.5049 21.5012 22.4656 21.5012C 21.7967 21.5816 21.1279 21.6619 20.459 21.7825C 20.2623 21.8227 20.0656 21.8227 19.9082 21.9031C 19.5934 22.0236 19.2787 22.0638 19.0033 22.0638C 18.8066 22.0638 18.5705 22.0638 18.3738 22.0236C 18.3344 22.0236 18.2951 22.0236 18.2557 22.0236C 17.7836 22.0236 17.2721 22.1844 16.8 22.305C 16.5246 22.3452 16.2098 22.5059 15.9344 22.5059C 14.6361 22.5059 13.3377 22.4657 12.0393 22.4255C 11.7639 22.4255 11.4885 22.305 11.0557 22.1844C 12.2754 23.2695 12 24.7565 12.3934 26.0426C 12.7082 27.0071 12.9049 27.9716 13.141 28.9362C 13.2197 29.1773 13.4164 29.4184 13.5344 29.6596C 13.8492 30.3026 13.6918 30.9456 13.5344 31.5887C 13.4164 32.0709 13.023 32.1111 12.6689 32.1513C 11.6852 32.3121 10.6623 32.513 9.67869 32.513C 9.52131 32.513 9.36393 32.513 9.20656 32.513C 8.26229 32.513 7.31803 32.4326 6.33443 32.3522C 6.17705 32.3522 6.05902 32.1915 5.94098 32.0709C 5.94098 32.0709 6.05902 31.87 6.13771 31.7494C 6.17705 31.669 6.25574 31.6288 6.25574 31.5485C 6.45246 30.6643 6.64918 29.8203 6.8459 28.9362C 7.2 27.409 7.51475 25.8818 7.94754 24.3546C 8.14426 23.7116 8.5377 23.1087 8.85246 22.4255C 8.41967 22.3853 8.06557 22.3853 7.59344 22.3452C 7.79016 21.5414 7.9082 20.7778 8.10492 20.0142C 8.2623 19.5319 8.30164 19.0898 8.06557 18.6478C 7.82951 18.2459 8.14426 18.0047 8.22295 17.6832C 8.41967 17 8.81311 16.8392 9.40328 16.8392C 9.44262 16.8392 9.48197 16.8392 9.52131 16.8392C 9.87541 16.8392 10.2295 16.8392 10.5836 16.8392C 11.0951 16.8392 11.6066 16.8392 12.118 16.8392C 11.3705 15.9149 11.7639 14.7896 11.9213 13.7045C 12.0393 12.9409 12.2754 12.1773 12.3541 11.4137C 12.4328 10.7305 12.7869 10.2884 13.3377 9.80615C 13.023 9.80615 12.7475 9.80615 12.4328 9.80615C 12.2754 9.80615 12.118 9.80615 11.9213 9.80615C 9.79672 9.88652 7.67213 10.0071 5.58688 10.0473L 5.54754 10.0473C 5.11475 10.0473 4.72131 9.84634 4.28852 9.76596C 3.65902 9.64539 3.02951 9.56501 2.4 9.44444C 2.24262 9.40426 2.12459 9.2435 1.96721 9.16312C 2.0459 9.04255 2.12459 8.8818 2.24262 8.80142C 2.71475 8.43972 3.18689 8.27896 3.7377 8.27896C 4.01311 8.27896 4.28852 8.31915 4.60328 8.39953C 5.78361 8.72104 6.96393 8.84161 8.18361 8.84161C 8.61639 8.84161 9.04918 8.84161 9.48197 8.80142C 11.3311 8.68085 13.1803 8.60047 15.0295 8.47991C 15.1082 8.47991 15.2262 8.47991 15.4623 8.43972C 15.0689 8.19858 14.7541 8.03783 14.4787 7.87707C 13.9279 7.55556 13.5738 7.0331 13.6525 6.39007C 13.7311 5.62648 13.8885 4.86288 14.0459 4.09929C 14.0459 4.0591 14.0852 4.01891 14.1246 3.97872C 14.9902 3.3357 15.2262 2.17021 16.0918 1.56738C 16.1705 1.52719 16.2098 1.40662 16.2492 1.32624C 16.3672 1.40662 16.4459 1.40662 16.5639 1.40662ZM 18.3344 10.0473C 18.4131 10.0473 18.5311 10.0473 18.6098 10.0473C 18.7672 10.0473 18.9246 10.0473 19.082 10.1277C 19.082 10.0875 19.082 10.0071 19.1213 9.9669C 18.6885 9.80615 18.2557 9.6052 17.823 9.44444C 17.7836 9.52482 17.7443 9.64539 17.7049 9.72577C 17.823 10.0071 18.059 10.0473 18.3344 10.0473ZM 16.7213 0L 16.5639 0L 16.2492 0L 15.541 0L 15.1082 0.602837C 15.1082 0.602837 15.1082 0.643026 15.0689 0.643026C 14.4787 1.08511 14.1246 1.68794 13.8492 2.13002C 13.6525 2.49173 13.4557 2.77305 13.259 2.93381C 12.9443 3.17494 12.7082 3.53664 12.6295 3.93853C 12.5902 4.13948 12.5508 4.34043 12.5115 4.54137C 12.3934 5.10402 12.3148 5.70686 12.2361 6.30969C 12.1967 6.6714 12.2361 6.99291 12.2754 7.31442C 11.2918 7.35461 10.3082 7.43499 9.32459 7.51537C 8.93115 7.55556 8.49836 7.55556 8.10492 7.55556C 6.96393 7.55556 5.90164 7.43499 4.87869 7.15366C 4.48525 7.0331 4.0918 6.99291 3.69836 6.99291C 2.83279 6.99291 2.0459 7.27423 1.3377 7.83688C 1.0623 8.07801 0.904918 8.35934 0.826229 8.47991C 0.826229 8.47991 0.826229 8.5201 0.786885 8.5201L -3.75216e-08 9.68558L 1.14098 10.4492C 1.14098 10.4492 1.14098 10.4492 1.18033 10.4894C 1.3377 10.6099 1.65246 10.8913 2.08525 10.9716C 2.47869 11.052 2.83279 11.0922 3.18689 11.1726C 3.46229 11.2128 3.69836 11.253 3.97377 11.2931C 4.05246 11.2931 4.20984 11.3333 4.32787 11.3735C 4.64262 11.4539 5.03607 11.5745 5.46885 11.5745L 5.54754 11.5745C 6.96393 11.5343 8.41967 11.4539 9.83607 11.4137C 10.1902 11.4137 10.5836 11.3735 10.9377 11.3735C 10.8984 11.7352 10.8197 12.1371 10.7016 12.539C 10.623 12.8605 10.5443 13.182 10.5049 13.5437C 10.4656 13.7045 10.4656 13.8652 10.4262 13.9858C 10.3475 14.4279 10.2295 14.9504 10.2295 15.513C 9.9541 15.513 9.71803 15.513 9.52131 15.513C 9.44262 15.513 9.40328 15.513 9.32459 15.513C 7.63279 15.513 7.04262 16.6383 6.8459 17.3617C 6.8459 17.3617 6.8459 17.4019 6.80656 17.4019C 6.68852 17.6832 6.29508 18.487 6.76721 19.3712C 6.76721 19.4113 6.72787 19.4917 6.68852 19.6525C 6.53115 20.2151 6.41311 20.818 6.29508 21.3806C 6.25574 21.6218 6.21639 21.8629 6.13771 22.104L 5.78361 23.7116L 6.60984 23.792C 6.57049 23.8723 6.53115 23.9929 6.53115 24.0733C 6.21639 25.2388 5.94098 26.4043 5.66557 27.5296C 5.58689 27.9314 5.46885 28.3333 5.39016 28.7352C 5.27213 29.1773 5.19344 29.6194 5.07541 30.0615C 4.99672 30.4232 4.91803 30.7849 4.83934 31.1064C 4.83934 31.1064 4.8 31.1466 4.8 31.1868C 4.0918 32.2719 4.68197 32.9953 4.87869 33.156C 5.07541 33.357 5.5082 33.7991 6.17705 33.8392C 6.41311 33.8392 6.64918 33.8794 6.88525 33.8794C 7.63279 33.9196 8.38033 34 9.12787 34C 9.28525 34 9.48197 34 9.63934 34C 10.4656 33.9598 11.2525 33.8392 12 33.7187C 12.2361 33.6785 12.5115 33.6383 12.7475 33.5981C 13.1803 33.5177 14.4787 33.357 14.7934 31.9504L 14.8328 31.87C 14.9902 31.1466 15.2262 30.1418 14.6754 29.0567C 14.5967 28.896 14.518 28.7754 14.4393 28.695C 14.4 28.6548 14.4 28.6147 14.3607 28.5745C 14.282 28.2128 14.1639 27.8913 14.0852 27.4894C 13.9279 26.8865 13.7705 26.2435 13.5738 25.6407C 13.4951 25.3593 13.4164 24.9976 13.377 24.6359C 13.3377 24.435 13.2984 24.1939 13.259 23.9527C 14.2033 23.9929 15.0295 23.9929 15.8164 23.9929C 16.2098 23.9929 16.5639 23.8723 16.8 23.792C 16.8393 23.792 16.9574 23.7518 16.9574 23.7518C 17.1148 23.7116 17.2721 23.6714 17.4295 23.6312C 17.7049 23.5508 17.9803 23.5106 18.1377 23.5106L 18.177 23.5106L 18.2557 23.5106C 18.4525 23.5106 18.6885 23.5508 18.9246 23.5508C 19.4361 23.5508 19.8689 23.4704 20.2623 23.3097C 19.8689 24.1939 19.8689 25.1182 19.9082 25.8416C 19.9082 25.9622 19.9082 26.0426 19.9475 26.1229C 19.8295 26.5248 19.7115 26.9267 19.5934 27.3688L 19.5541 27.5296C 19.4361 27.8511 19.1607 28.8156 19.6328 29.7801C 19.5934 30.7045 19.8295 31.5083 20.3016 32.0709C 20.7738 32.6336 21.4033 32.9551 22.1508 32.9953C 22.5049 33.0355 22.859 33.0355 23.1738 33.0757C 23.7246 33.1158 24.3148 33.1962 24.9049 33.1962C 25.1803 33.1962 25.4557 33.1962 25.7311 33.1962C 26.3213 33.1962 26.9115 33.156 27.4623 33.1158C 28.8393 32.9953 29.9016 31.9504 30.059 30.6241L 30.059 30.5839C 30.2164 29.3381 30.3738 27.9314 29.941 26.5248C 29.823 26.1631 29.5869 25.721 29.1541 25.4397C 29.0361 25.078 28.8 24.7967 28.682 24.6359C 28.4459 24.3144 28.1705 24.0331 27.9344 23.7518C 27.8557 23.6312 27.7771 23.5508 27.659 23.4303C 27.659 23.4303 27.659 23.3901 27.6197 23.3901C 27.5803 23.3097 27.541 23.2293 27.5016 23.1489C 27.4623 23.1087 27.4623 23.0284 27.423 22.9882C 28.0525 22.6667 28.6426 22.0236 28.6426 20.617C 28.6426 19.6525 28.6426 18.7683 28.5639 17.8842C 28.4852 16.7991 27.8557 15.9953 26.9115 15.7139C 26.4 15.5532 25.8885 15.4728 25.4557 15.4728C 24.7082 15.4728 24.0787 15.6738 23.5279 16.0355C 23.4492 16.0757 23.3705 16.1158 23.2131 16.156C 23.2918 15.9149 23.3311 15.6738 23.4098 15.4326C 23.5279 14.9102 23.6852 14.3877 23.882 13.8652C 24.0787 13.2222 24.2754 12.5792 24.4328 11.9362C 24.4721 11.9362 24.5115 11.9362 24.5508 11.9362C 25.6525 12.0165 26.5574 12.0969 27.3836 12.5792C 27.6984 12.7801 28.0131 12.8203 28.2098 12.8605L 28.8393 12.9811C 30.4525 13.2222 32.1443 13.5035 33.7967 13.7447C 33.8754 13.7447 33.9934 13.7849 34.0721 13.7849C 34.3475 13.7849 34.5443 13.7447 34.7016 13.7045C 34.741 13.7045 34.7803 13.7045 34.8197 13.6643L 36 13.5035L 36 12.2979L 36 12.0969L 36 11.2128L 35.2131 10.8511C 35.1344 10.8109 35.0951 10.7707 35.0164 10.7305C 34.7803 10.6099 34.4262 10.409 33.9934 10.3286C 33.3246 10.208 32.6557 10.0875 31.9869 10.0071C 31.1213 9.88653 30.2557 9.72577 29.4295 9.56501C 28.6033 9.40426 27.7771 9.12293 27.0295 8.8818C 25.8885 8.47991 24.7869 8.43972 23.7246 8.39953C 23.7246 7.99764 23.6852 7.63593 23.6852 7.23404C 23.6852 7.07329 23.6459 6.91253 23.6459 6.79196C 23.6459 6.63121 23.6459 6.43026 23.6066 6.2695C 23.5672 5.82742 23.5672 5.34515 23.5279 4.86288C 23.5279 4.74232 23.4885 4.62175 23.4885 4.50118C 23.4492 3.85816 23.3705 3.17494 23.2131 2.49173C 23.0951 1.68794 22.5836 0.602837 21.0492 0.602837C 20.9705 0.602837 20.8525 0.602837 20.7738 0.602837C 20.7344 0.602837 20.6951 0.602837 20.6951 0.602837C 20.4984 0.602837 20.2623 0.562648 20.0262 0.522459L 19.9475 0.522459C 19.2787 0.44208 18.5705 0.321513 17.7443 0.200946C 17.5869 0.160757 17.3902 0.120567 17.1934 0.0803782C 17.0754 0.040189 16.9967 0.0401891 16.8787 0L 16.7213 0Z"/>
</defs>
</svg>
